<svg xmlns="http://www.w3.org/2000/svg" xmlns:xlink="http://www.w3.org/1999/xlink" viewBox="0 0 970.83 668.24"><defs><style>.a,.c,.d,.e,.f,.g,.h,.i,.j,.k,.l,.m,.n,.o,.p,.q,.r,.s,.u,.v,.w,.x,.y,.z{fill:none;}.b{clip-path:url(#a);}.c{stroke:#f7f7f7;stroke-miterlimit:10;}.d,.e,.f,.g,.h,.i,.j,.k,.l,.m,.n,.o,.p,.q,.r,.s,.t,.u,.v,.w,.x,.y,.z{stroke:#3fe2c9;stroke-linecap:round;stroke-linejoin:round;}.d,.e,.f{stroke-width:9px;}.d{stroke-dasharray:759.2 70.56 14.11 98.78;}.e{stroke-dasharray:759.75 70.35 14.07 98.49;}.f{stroke-dasharray:795.01 56.79 11.36 79.5;}.g,.h,.i,.j,.k,.l,.m,.n,.o,.p,.q,.r,.s,.t,.u,.v,.w,.x,.y,.z{stroke-width:5px;}.h,.n,.z{stroke-dasharray:22 10 14 20;}.h,.j,.m,.p,.q,.r,.s{opacity:0.2;}.i,.t{stroke-dasharray:40 20 1 20;}.j{stroke-dasharray:5 12 31 20;}.k{stroke-dasharray:5 10 8 20;opacity:0.1;}.l{stroke-dasharray:326 50 10 70;}.m{stroke-dasharray:5 10 14 20;}.o{stroke-dasharray:40 16 1 20;}.p{stroke-dasharray:18 10 14 20;}.q{stroke-dasharray:5 9 14 20;}.r{stroke-dasharray:9 0 14;}.s{stroke-dasharray:5 10 14 8;}.t{fill:#3fe2c9;}.u{stroke-dasharray:8 37 22 20;opacity:0.6;}.v{stroke-dasharray:20 15 0 10;}.w{stroke-dasharray:36 14 0 15;}.x{stroke-dasharray:140 15 3 15 3 20;}.y{stroke-dasharray:19 20 14 20;}.z{opacity:0.5;}</style><clipPath id="a"><rect class="a" x="-1281.24" y="-868.45" width="2048" height="744"/></clipPath></defs><title>thingsido</title><g class="b"><ellipse class="c" cx="45.17" cy="-471.92" rx="354.83" ry="905.69" transform="translate(463.58 -249.03) rotate(-67.42)"/><ellipse class="c" cx="20.97" cy="-481.52" rx="367.75" ry="943.65" transform="translate(457.54 -277.29) rotate(-67.42)"/><ellipse class="c" cx="-3.22" cy="-491.12" rx="380.68" ry="981.62" transform="translate(451.5 -305.54) rotate(-67.42)"/><ellipse class="c" cx="-27.42" cy="-500.72" rx="393.61" ry="1019.58" transform="translate(445.45 -333.79) rotate(-67.42)"/><ellipse class="c" cx="-51.61" cy="-510.32" rx="406.53" ry="1057.55" transform="translate(439.41 -362.05) rotate(-67.42)"/><ellipse class="c" cx="-75.8" cy="-519.91" rx="419.46" ry="1095.52" transform="translate(433.37 -390.3) rotate(-67.42)"/><ellipse class="c" cx="-100" cy="-529.51" rx="432.39" ry="1133.48" transform="translate(427.33 -418.55) rotate(-67.42)"/><ellipse class="c" cx="-124.19" cy="-539.11" rx="445.31" ry="1171.45" transform="translate(421.29 -446.81) rotate(-67.42)"/><ellipse class="c" cx="-148.38" cy="-548.71" rx="458.24" ry="1209.41" transform="translate(415.24 -475.06) rotate(-67.42)"/><ellipse class="c" cx="-172.58" cy="-558.31" rx="471.17" ry="1247.38" transform="translate(409.2 -503.31) rotate(-67.42)"/><ellipse class="c" cx="-196.77" cy="-567.91" rx="484.1" ry="1285.35" transform="translate(403.16 -531.57) rotate(-67.42)"/><ellipse class="c" cx="-220.97" cy="-577.51" rx="497.02" ry="1323.31" transform="translate(397.12 -559.82) rotate(-67.42)"/><ellipse class="c" cx="-245.16" cy="-587.11" rx="509.95" ry="1361.28" transform="translate(391.08 -588.07) rotate(-67.42)"/><ellipse class="c" cx="-269.35" cy="-596.71" rx="522.88" ry="1399.24" transform="translate(385.03 -616.33) rotate(-67.42)"/><ellipse class="c" cx="-293.55" cy="-606.3" rx="535.8" ry="1437.21" transform="translate(378.99 -644.58) rotate(-67.42)"/><ellipse class="c" cx="-317.74" cy="-615.9" rx="548.73" ry="1475.18" transform="translate(372.95 -672.83) rotate(-67.42)"/><ellipse class="c" cx="-341.93" cy="-625.5" rx="561.66" ry="1513.14" transform="translate(366.91 -701.09) rotate(-67.42)"/><ellipse class="c" cx="-366.13" cy="-635.1" rx="574.58" ry="1551.11" transform="translate(360.87 -729.34) rotate(-67.42)"/><ellipse class="c" cx="-390.32" cy="-644.7" rx="587.51" ry="1589.07" transform="translate(354.82 -757.59) rotate(-67.42)"/><ellipse class="c" cx="-414.52" cy="-654.3" rx="600.44" ry="1627.04" transform="translate(348.78 -785.85) rotate(-67.42)"/><ellipse class="c" cx="-438.71" cy="-663.9" rx="613.36" ry="1665.01" transform="translate(342.74 -814.1) rotate(-67.42)"/><ellipse class="c" cx="-462.9" cy="-673.5" rx="626.29" ry="1702.97" transform="translate(336.7 -842.35) rotate(-67.42)"/><ellipse class="c" cx="-487.1" cy="-683.1" rx="639.22" ry="1740.94" transform="translate(330.66 -870.61) rotate(-67.42)"/><ellipse class="c" cx="-511.29" cy="-692.69" rx="652.15" ry="1778.9" transform="translate(324.62 -898.86) rotate(-67.42)"/><ellipse class="c" cx="-535.49" cy="-702.29" rx="665.07" ry="1816.87" transform="translate(318.57 -927.11) rotate(-67.42)"/><ellipse class="c" cx="-559.68" cy="-711.89" rx="678" ry="1854.84" transform="translate(312.53 -955.37) rotate(-67.42)"/><ellipse class="c" cx="-583.87" cy="-721.49" rx="690.93" ry="1892.8" transform="translate(306.49 -983.62) rotate(-67.42)"/><ellipse class="c" cx="-608.07" cy="-731.09" rx="703.85" ry="1930.77" transform="translate(300.45 -1011.87) rotate(-67.42)"/><ellipse class="c" cx="-632.26" cy="-740.69" rx="716.78" ry="1968.73" transform="translate(294.41 -1040.13) rotate(-67.42)"/><ellipse class="c" cx="-656.45" cy="-750.29" rx="729.71" ry="2006.7" transform="translate(288.36 -1068.38) rotate(-67.42)"/><ellipse class="c" cx="-680.65" cy="-759.89" rx="742.63" ry="2044.67" transform="translate(282.32 -1096.63) rotate(-67.42)"/><ellipse class="c" cx="-704.84" cy="-769.48" rx="755.56" ry="2082.63" transform="translate(276.28 -1124.89) rotate(-67.42)"/><ellipse class="c" cx="-729.04" cy="-779.08" rx="768.49" ry="2120.6" transform="translate(270.24 -1153.14) rotate(-67.42)"/><ellipse class="c" cx="-753.23" cy="-788.68" rx="781.42" ry="2158.56" transform="translate(264.2 -1181.39) rotate(-67.42)"/><ellipse class="c" cx="-777.42" cy="-798.28" rx="794.34" ry="2196.53" transform="translate(258.15 -1209.65) rotate(-67.42)"/><ellipse class="c" cx="-801.62" cy="-807.88" rx="807.27" ry="2234.5" transform="translate(252.11 -1237.9) rotate(-67.42)"/><ellipse class="c" cx="-825.81" cy="-817.48" rx="820.2" ry="2272.46" transform="translate(246.07 -1266.15) rotate(-67.42)"/><ellipse class="c" cx="-850" cy="-827.08" rx="833.12" ry="2310.43" transform="translate(240.03 -1294.41) rotate(-67.42)"/></g><path class="d" d="M157.34,25L54.27,84.51A36.38,36.38,0,0,0,36.07,116V235a36.38,36.38,0,0,0,18.19,31.51L157.34,326a36.38,36.38,0,0,0,36.38,0l103.07-59.51A36.38,36.38,0,0,0,315,235V116a36.38,36.38,0,0,0-18.19-31.51L193.72,25A36.38,36.38,0,0,0,157.34,25Z"/><path class="e" d="M354.48,342.19L251.41,401.69a36.38,36.38,0,0,0-18.19,31.51v119a36.38,36.38,0,0,0,18.19,31.51l103.07,59.51a36.38,36.38,0,0,0,36.38,0l103.07-59.51a36.38,36.38,0,0,0,18.19-31.51v-119a36.38,36.38,0,0,0-18.19-31.51L390.86,342.19A36.38,36.38,0,0,0,354.48,342.19Z"/><path class="e" d="M777.12,342.19L674,401.69a36.38,36.38,0,0,0-18.19,31.51v119A36.38,36.38,0,0,0,674,583.73l103.07,59.51a36.38,36.38,0,0,0,36.38,0l103.07-59.51a36.38,36.38,0,0,0,18.19-31.51v-119a36.38,36.38,0,0,0-18.19-31.51L813.5,342.19A36.38,36.38,0,0,0,777.12,342.19Z"/><path class="f" d="M569.1,25L466,84.51A36.38,36.38,0,0,0,447.84,116V235A36.38,36.38,0,0,0,466,266.54L569.1,326a36.38,36.38,0,0,0,36.38,0l103.07-59.51A36.38,36.38,0,0,0,726.74,235V116a36.38,36.38,0,0,0-18.19-31.51L605.48,25A36.38,36.38,0,0,0,569.1,25Z"/><rect class="g" x="192.03" y="119.65" width="26.68" height="112.94" transform="translate(-60.43 125.64) rotate(-29.86)"/><line class="h" x1="139.63" y1="216.85" x2="176.63" y2="216.85"/><line class="h" x1="131.03" y1="177.53" x2="193.7" y2="177.53"/><line class="i" x1="99.87" y1="244.78" x2="216.39" y2="244.78"/><polyline class="j" points="591.92 146.83 560.83 128.52 560.83 234.52 591.93 216.2"/><polyline class="k" points="560.83 139.82 541.63 128.52 541.63 234.52 560.83 223.21"/><polygon class="l" points="591.93 128.52 591.93 234.52 681.93 181.52 591.93 128.52"/><line class="m" x1="499.99" y1="184.52" x2="476.99" y2="184.52"/><line class="h" x1="525.49" y1="128.52" x2="488.49" y2="128.52"/><line class="n" x1="604.99" y1="149.02" x2="567.99" y2="149.02"/><line class="o" x1="604.99" y1="195.02" x2="542.32" y2="195.02"/><line class="i" x1="620.71" y1="176.19" x2="580.99" y2="176.19"/><line class="n" x1="613.38" y1="226.02" x2="576.38" y2="226.02"/><line class="m" x1="506.99" y1="151.19" x2="469.99" y2="151.19"/><line class="p" x1="525.49" y1="167.85" x2="488.49" y2="167.85"/><line class="q" x1="525.49" y1="201.19" x2="488.49" y2="201.19"/><line class="r" x1="506.99" y1="217.85" x2="469.99" y2="217.85"/><line class="s" x1="525.49" y1="234.52" x2="488.49" y2="234.52"/><polygon class="t" points="244.33 244.78 244.59 235.31 236.35 240.04 244.33 244.78"/><line class="t" x1="231.34" y1="221.05" x2="180.68" y2="130.52"/><polygon class="u" points="245.06 218.46 244.33 244.78 221.92 231.74 245.06 218.46"/><polyline class="v" points="343.36 460.58 307.87 502.14 343.36 542.85"/><polyline class="v" points="405.49 542.85 440.98 501.29 405.49 460.58"/><line class="h" x1="328.82" y1="435.57" x2="358.66" y2="435.57"/><line class="h" x1="341.64" y1="419.71" x2="392.19" y2="419.71"/><line class="h" x1="360.5" y1="583.48" x2="390.35" y2="583.48"/><line class="h" x1="373.32" y1="567.62" x2="423.87" y2="567.62"/><line class="w" x1="396.34" y1="419.71" x2="353.89" y2="583.72"/><path class="x" d="M830.89,419.71v35.15a24,24,0,0,1-24,24H760.22a24,24,0,0,0-24,24v17.52"/><circle class="h" cx="736.22" cy="542.85" r="12.8"/><circle class="h" cx="843.69" cy="515.64" r="12.8"/><circle class="h" cx="808.11" cy="563.37" r="12.8" transform="translate(-176.6 591.28) rotate(-36.51)"/><polyline class="y" points="819.55 437.69 830.89 419.71 840.72 437.69"/><line class="z" x1="802.85" y1="502.84" x2="770.92" y2="534.78"/><line class="z" x1="802.64" y1="534.99" x2="771.14" y2="502.63"/><line class="z" x1="742.92" y1="455.07" x2="774.85" y2="423.14"/><line class="z" x1="743.14" y1="422.92" x2="774.64" y2="455.28"/></svg>