<svg xmlns="http://www.w3.org/2000/svg" viewBox="0 0 1892.49 577.4"><defs><style>.cls-1,.cls-2,.cls-3,.cls-4,.cls-5,.cls-6,.cls-7,.cls-8{fill:none;stroke:#eee33d;stroke-linecap:round;stroke-linejoin:round;stroke-width:15px;}.cls-2{stroke-dasharray:0 25.14 284.89 25.14;}.cls-3{stroke-dasharray:67.03 25.14 0 25.14 284.89 25.14;}.cls-4{stroke-dasharray:80 30 0 30 340 30;}.cls-5{stroke-dasharray:0 22.6 256.14 22.6;}.cls-6{stroke-dasharray:60.27 22.6 0 22.6 256.14 22.6;}.cls-7{stroke-dasharray:0 26.78;}.cls-8{stroke-dasharray:71.41 26.78 0 26.78;}.cls-9{fill:#eee33d;}.cls-10,.cls-12{fill:#231f20;}.cls-11{fill:#fff;}.cls-12{font-size:108.91px;font-family:AktifoA-Black, Aktifo A;font-weight:800;}.cls-13{letter-spacing:0em;}.cls-14{font-size:174.25px;font-family:BauerBodoniStd-Bold, "Bauer Bodoni Std 1";font-weight:700;letter-spacing:0em;}</style></defs><title>logo</title><g id="Layer_2" data-name="Layer 2"><g id="Layer_1-2" data-name="Layer 1"><path class="cls-1" d="M1120.75,295.36a389.49,389.49,0,0,1-32.38-22.4l-.48-.38"/><path class="cls-2" d="M1068.27,256.86C974.89,179.25,914.8,90.09,828.59,42.22"/><path class="cls-3" d="M817.48,36.35C779.87,17.55,737.1,6.6,684.61,7.56c-180.3,3.28-453.45,239-453.45,239s-73.81,61.12-175.39,31.27"/><path class="cls-1" d="M43.82,273.92A240.14,240.14,0,0,1,7.5,257.26"/><path class="cls-4" d="M1572.46,240.28a248.74,248.74,0,0,1-51.81,55.08"/><path class="cls-1" d="M1078.33,333.42q-16.78-11.21-33.61-21.7"/><path class="cls-5" d="M1025.39,300c-81-47.76-163-78.49-247.34-63.95a233.83,233.83,0,0,0-28.19,6.72"/><path class="cls-6" d="M739.12,246.28c-118.84,41.44-229.95,170.39-281.6,237.46"/><path class="cls-1" d="M450.64,492.76c-15,19.89-23.4,32.44-23.4,32.44"/><path class="cls-1" d="M1715.75,454.32a249,249,0,0,1-25.2,31"/><path class="cls-7" d="M1671,503.65q-5.13,4.32-10.46,8.35"/><path class="cls-8" d="M1649.68,519.79c-115.88,78.49-294.07,62.68-418-32.79q-16.35-12.58-31.14-25.78"/><path class="cls-1" d="M1190.59,452.24c-10-9.21-19.5-18.54-28.66-27.89"/><path class="cls-9" d="M1757,215.81H1580.46c3.09-72,62.61-129.58,135.34-129.58h170.8V257c0,72.72-57.6,132.25-129.57,135.34Z"/><path class="cls-10" d="M1880.71,92.12V257a129.58,129.58,0,0,1-117.79,129V209.92H1586.74A129.62,129.62,0,0,1,1715.8,92.12h164.91m11.78-11.78H1715.8A141.36,141.36,0,0,0,1574.44,221.7h176.7V398.4h0A141.35,141.35,0,0,0,1892.49,257V80.34Z"/><path class="cls-11" d="M1758,214.83V180.47a34.36,34.36,0,1,1,34.36,34.36Z"/><path class="cls-10" d="M1792.36,153a27.49,27.49,0,1,1,0,55h-27.48V180.47A27.51,27.51,0,0,1,1792.36,153m0-13.75a41.22,41.22,0,0,0-41.22,41.23V221.7h41.22a41.22,41.22,0,0,0,41.23-41.23h0a41.22,41.22,0,0,0-41.23-41.23Z"/><text class="cls-12" transform="translate(1115.1 400.21)"><tspan class="cls-13">PR</tspan><tspan x="155.59" y="0">O</tspan><tspan class="cls-14" x="244.98" y="0">mad</tspan></text></g></g></svg>