<svg xmlns="http://www.w3.org/2000/svg" viewBox="0 0 1892.49 577.4"><defs><style>.line{fill:none;stroke:#eee33d;stroke-linecap:round;stroke-linejoin:round;stroke-width:15px;}.cls-2{fill:#eee33d;}.cls-3{fill:#231f20;}.cls-4{fill:#fff;}</style></defs><title>logo_2</title><g id="Layer_2" data-name="Layer 2"><g id="full" data-name="full"><path class="line path_tl" d="M1120.75,295.36a389.49,389.49,0,0,1-32.38-22.4C937.22,156.53,874.56,4.1,684.61,7.56c-180.3,3.28-453.45,239-453.45,239s-98,81.19-223.66,10.72"/><path class="line path_tr" d="M1572.46,240.28a248.74,248.74,0,0,1-51.81,55.08"/><path class="line path_bl" d="M1078.33,333.42c-98.28-65.6-197.56-115.07-300.28-97.36C600.35,266.69,427.24,525.2,427.24,525.2"/><path class="line path_br" d="M1715.75,454.32C1614.64,601.38,1382.81,603.43,1231.67,487c-25.92-20-48.77-41.24-69.74-62.65"/><path class="cls-2" d="M1757,215.81H1580.46c3.09-72,62.61-129.58,135.34-129.58h170.8V257c0,72.72-57.6,132.25-129.57,135.34Z"/><path class="cls-3" d="M1880.71,92.12V257a129.58,129.58,0,0,1-117.79,129V209.92H1586.74A129.62,129.62,0,0,1,1715.8,92.12h164.91m11.78-11.78H1715.8A141.36,141.36,0,0,0,1574.44,221.7h176.7V398.4h0A141.35,141.35,0,0,0,1892.49,257V80.34Z"/><path class="cls-4" d="M1758,214.83V180.47a34.36,34.36,0,1,1,34.35,34.36Z"/><path class="cls-3" d="M1792.37,153a27.49,27.49,0,0,1,0,55h-27.49V180.47A27.52,27.52,0,0,1,1792.37,153m0-13.75h0a41.22,41.22,0,0,0-41.22,41.23V221.7h41.23a41.22,41.22,0,0,0,41.22-41.23h0a41.22,41.22,0,0,0-41.22-41.23Z"/><path class="cls-3" d="M1159,321.24q13.72,0,22.12,7.53t8.4,19.81q0,12.87-8.29,20.15T1159,376h-16v24.2h-21.43v-79Zm-2.07,36.38c3.19,0,5.64-.77,7.36-2.29a8,8,0,0,0,2.58-6.33,7.75,7.75,0,0,0-2.68-6.41,11.35,11.35,0,0,0-7.26-2.15H1143v17.18Z"/><path class="cls-3" d="M1249.16,372.24l21.91,28H1244.8l-19-24.94h-5.69v24.94h-21.43v-79h38.55q14.58,0,22.52,7.31t8,19.07a25.53,25.53,0,0,1-4.94,15.74A24.17,24.17,0,0,1,1249.16,372.24Zm-29.09-13.83h15.15c3.27,0,5.71-.82,7.34-2.47a9.11,9.11,0,0,0,2.45-6.7,8,8,0,0,0-2.61-6.46,10.66,10.66,0,0,0-7.18-2.23h-15.15Z"/><path class="cls-3" d="M1273.94,360.7q0-18.3,11.32-29.41t30.08-11.11q18.73,0,30.12,11.11t11.38,29.41q0,18.41-11.38,29.49t-30.12,11.08q-18.75,0-30.08-11.08T1273.94,360.7Zm22.76,0q0,9.89,5.08,15.77t13.58,5.87q8.63,0,13.67-5.87t5-15.77q0-9.78-5.08-15.74t-13.64-6q-8.5,0-13.58,6T1296.7,360.7Z"/><path class="cls-3" d="M1374.9,326.67h-12v-3.13h12.37c7.15,0,20,0,23.7-4.53v18.64h.35c4.71-10.1,16.21-16.2,27.88-16.2,10.11,0,19,5.22,22.31,16.2,5.75-10.45,16.2-16.2,27.88-16.2,14.64,0,22.65,8.19,22.65,27v48.61h12v3.14h-45.3v-3.14H1476V343.23c0-10.28-1.74-15.51-8.19-15.51-11,0-18.29,13.77-18.29,21.61v47.74h9.58v3.14h-43.39v-3.14h9.76V343.23c0-10.28-1.74-15.51-8.19-15.51-11,0-18.3,13.77-18.3,21.61v47.74H1408v3.14h-45.13v-3.14h12Z"/><path class="cls-3" d="M1595,386.27c0,5.4.87,8.71,4,8.71,4.18,0,6.1-5.23,6.1-9.76h3.14c0,10.28-7.32,17.08-18.65,17.08-7.84,0-14.29-3.66-17.43-11-4.53,8.37-16.55,11-23.35,11-13.41,0-27-6.1-27-21.26,0-18.12,17.26-22.3,33.11-23.52l17.08-1.4V341.49c0-10.46-1.74-16.91-14.81-16.91-5.93,0-16,1.4-15.86,5.23.18,3,8.89,2.44,8.89,10.8,0,6.1-4,10.46-10.63,10.46-7.84,0-11.33-5.23-11.33-11.33,0-9.76,12.72-18.29,30.15-18.29,17.95,0,36.59,4.88,36.59,24.74Zm-23-27-13.77,1.39c-11.32,1.22-12.37,7.32-12.37,16.56,0,9.06.52,19.86,12.37,19.86,8.19,0,13.42-8.36,13.77-17.6Z"/><path class="cls-3" d="M1663.28,277.53h13.41c12.38,0,22,0,25.1-5.4V397.07h12v3.14h-12c-6.28,0-18,0-24,2.09V389.58h-.35c-4.18,7.84-10.45,12.72-22,12.72-17.42,0-36.76-14.81-36.76-39,0-22.31,13.76-41.82,37.11-41.82,11,0,17.6,4.88,21.61,13.41h.35V280.67h-14.46Zm14.46,69.18c0-9.76-7-21.08-18.82-21.08-11.15,0-14.12,9.76-14.12,21.61v25.09c0,17.77,4.36,25.79,14.82,25.79,11.5,0,18.12-10.81,18.12-20.91Z"/></g></g></svg>