<svg xmlns="http://www.w3.org/2000/svg" viewBox="0 0 482.21 482.21"><defs><style>.cls-1{fill:#fff;}.cls-2{fill:#eee33d;}.cls-3{fill:#231f20;}</style></defs><title>icon</title><g id="Layer_2" data-name="Layer 2"><g id="Layer_1-2" data-name="Layer 1"><circle class="cls-1" cx="241.1" cy="241.1" r="241.1"/><path class="cls-2" d="M233.86,247.44H57.29c3.1-72,62.62-129.58,135.34-129.58H363.44V288.67c0,72.72-57.61,132.25-129.58,135.34Z"/><path class="cls-3" d="M357.55,123.75V288.67a129.58,129.58,0,0,1-117.8,129.05V241.55H63.58a129.62,129.62,0,0,1,129.05-117.8H357.55M369.33,112H192.63A141.36,141.36,0,0,0,51.27,253.33H228V430h0A141.36,141.36,0,0,0,369.33,288.67V112Z"/><path class="cls-1" d="M234.84,246.46V212.1a34.36,34.36,0,1,1,34.36,34.36Z"/><path class="cls-3" d="M269.2,184.62a27.49,27.49,0,1,1,0,55H241.71V212.1a27.52,27.52,0,0,1,27.49-27.48m0-13.75A41.23,41.23,0,0,0,228,212.1v41.23H269.2a41.23,41.23,0,1,0,0-82.46Z"/></g></g></svg>