<?xml version="1.0" encoding="utf-8"?>
<!-- Generator: Adobe Illustrator 24.1.1, SVG Export Plug-In . SVG Version: 6.00 Build 0)  -->
<svg version="1.1" xmlns="http://www.w3.org/2000/svg" xmlns:xlink="http://www.w3.org/1999/xlink" x="0px" y="0px"
	 viewBox="0 0 1892.5 577.4" style="enable-background:new 0 0 1892.5 577.4;" xml:space="preserve">
<style type="text/css">
	.st0{fill:none;stroke:#EEE33D;stroke-width:15;stroke-linecap:round;stroke-linejoin:round;}
	.st1{fill:#EEE33D;}
	.st2{fill:#00455F;}
	.st3{fill:#FFFFFF;}
</style>
<g id="Layer_4">
	<g>
		<path class="st0" d="M1120.8,295.4c-11.2-6.9-22-14.4-32.4-22.4C937.2,156.5,874.6,4.1,684.6,7.6c-180.3,3.3-453.5,239-453.5,239
			s-98,81.2-223.7,10.7"/>
		<path class="st0" d="M1572.5,240.3c-14.4,20.9-31.8,39.5-51.8,55.1"/>
		<path class="st0" d="M1078.3,333.4C980,267.8,880.8,218.4,778,236.1c-177.7,30.6-350.8,289.1-350.8,289.1"/>
		<path class="st0" d="M1715.8,454.3c-101.1,147.1-332.9,149.1-484.1,32.7c-25.9-20-48.8-41.2-69.7-62.6"/>
	</g>
	<g>
		<path class="st1" d="M1754.6,215.8h-174.2c3.1-72,62.6-129.6,135.3-129.6h170.8V257c0,72.7-57.6,132.3-129.6,135.3l0-174.8"/>
		<path class="st2" d="M1880.7,92.1V257c0,67-51.1,122.9-117.8,129V209.9h-176.2c6.1-66.7,62.1-117.8,129.1-117.8H1880.7
			 M1892.5,80.3h-176.7c-78.1,0-141.4,63.3-141.4,141.4c0,0,0,0,0,0h176.7v176.7l0,0c78.1,0,141.4-63.3,141.4-141.3c0,0,0,0,0-0.1
			L1892.5,80.3L1892.5,80.3z"/>
		<path class="st3" d="M1757,217.6l0.2-36.1c0-19,15.4-34.4,34.4-34.4c19,0,34.4,15.4,34.4,34.4s-15.4,34.4-34.4,34.4
			c0,0-1.3-2.1,0,0l-36.9,0"/>
		<path class="st2" d="M1792.4,153c15.2,0,27.5,12.3,27.5,27.5s-12.3,27.5-27.5,27.5h-27.5v-27.5
			C1764.9,165.3,1777.2,153,1792.4,153 M1792.4,139.3L1792.4,139.3c-22.8,0-41.2,18.5-41.2,41.2c0,0,0,0,0,0v41.2h41.2
			c22.8,0,41.2-18.5,41.2-41.2c0,0,0,0,0,0l0,0C1833.6,157.7,1815.2,139.2,1792.4,139.3C1792.4,139.2,1792.4,139.2,1792.4,139.3
			L1792.4,139.3z"/>
	</g>
</g>
<g id="Layer_3">
	<g>
		<path class="st1" d="M1754.6,215.8h-174.2c3.1-72,62.6-129.6,135.3-129.6h170.8V257c0,72.7-57.6,132.3-129.6,135.3l0-174.8"/>
		<path class="st2" d="M1880.7,92.1V257c0,67-51.1,122.9-117.8,129V209.9h-176.2c6.1-66.7,62.1-117.8,129.1-117.8H1880.7
			 M1892.5,80.3h-176.7c-78.1,0-141.4,63.3-141.4,141.4c0,0,0,0,0,0h176.7v176.7l0,0c78.1,0,141.4-63.3,141.4-141.3c0,0,0,0,0-0.1
			L1892.5,80.3L1892.5,80.3z"/>
		<path class="st3" d="M1757,217.6l0.2-36.1c0-19,15.4-34.4,34.4-34.4c19,0,34.4,15.4,34.4,34.4s-15.4,34.4-34.4,34.4
			c0,0-1.3-2.1,0,0l-36.9,0"/>
		<path class="st2" d="M1792.4,153c15.2,0,27.5,12.3,27.5,27.5s-12.3,27.5-27.5,27.5h-27.5v-27.5
			C1764.9,165.3,1777.2,153,1792.4,153 M1792.4,139.3L1792.4,139.3c-22.8,0-41.2,18.5-41.2,41.2c0,0,0,0,0,0v41.2h41.2
			c22.8,0,41.2-18.5,41.2-41.2c0,0,0,0,0,0l0,0C1833.6,157.7,1815.2,139.2,1792.4,139.3C1792.4,139.2,1792.4,139.2,1792.4,139.3
			L1792.4,139.3z"/>
	</g>
</g>
<g id="Layer_2">
	<g>
		<path class="st1" d="M1159,321.2c9.1,0,16.5,2.5,22.1,7.5c5.6,5,8.4,11.6,8.4,19.8c0,8.6-2.8,15.3-8.3,20.1s-12.9,7.3-22.2,7.3
			h-16v24.2h-21.4v-79L1159,321.2z M1156.9,357.6c3.2,0,5.6-0.8,7.4-2.3c1.8-1.6,2.7-3.9,2.6-6.3c0.2-2.4-0.8-4.8-2.7-6.4
			c-2.1-1.5-4.7-2.3-7.3-2.1H1143v17.2H1156.9z"/>
		<path class="st1" d="M1249.2,372.2l21.9,28h-26.3l-19-24.9h-5.7v24.9h-21.4v-79h38.6c9.7,0,17.2,2.4,22.5,7.3
			c5.3,4.9,8,11.2,8,19.1c0.1,5.6-1.6,11.2-4.9,15.7C1259.4,367.8,1254.6,370.9,1249.2,372.2z M1220.1,358.4h15.2
			c3.3,0,5.7-0.8,7.3-2.5c1.7-1.8,2.6-4.2,2.4-6.7c0.2-2.4-0.8-4.8-2.6-6.5c-2-1.6-4.6-2.4-7.2-2.2h-15.2L1220.1,358.4z"/>
		<path class="st1" d="M1273.9,360.7c0-12.2,3.8-22,11.3-29.4s17.6-11.1,30.1-11.1c12.5,0,22.5,3.7,30.1,11.1
			c7.6,7.4,11.4,17.2,11.4,29.4c0,12.3-3.8,22.1-11.4,29.5s-17.6,11.1-30.1,11.1c-12.5,0-22.5-3.7-30.1-11.1
			C1277.7,382.8,1273.9,373,1273.9,360.7z M1296.7,360.7c0,6.6,1.7,11.9,5.1,15.8c3.4,3.9,7.9,5.9,13.6,5.9c5.8,0,10.3-2,13.7-5.9
			c3.4-3.9,5-9.2,5-15.8c0-6.5-1.7-11.8-5.1-15.7s-7.9-6-13.6-6c-5.7,0-10.2,2-13.6,6C1298.3,349,1296.7,354.2,1296.7,360.7z"/>
		<path class="st1" d="M1374.9,326.7h-12v-3.1h12.4c7.2,0,20,0,23.7-4.5v18.6h0.3c4.7-10.1,16.2-16.2,27.9-16.2
			c10.1,0,19,5.2,22.3,16.2c5.8-10.5,16.2-16.2,27.9-16.2c14.6,0,22.7,8.2,22.7,27v48.6h12v3.1h-45.3v-3.1h9.3v-53.8
			c0-10.3-1.7-15.5-8.2-15.5c-11,0-18.3,13.8-18.3,21.6v47.7h9.6v3.1h-43.4v-3.1h9.8v-53.8c0-10.3-1.7-15.5-8.2-15.5
			c-11,0-18.3,13.8-18.3,21.6v47.7h9v3.1h-45.1v-3.1h12L1374.9,326.7z"/>
		<path class="st1" d="M1595,386.3c0,5.4,0.9,8.7,4,8.7c4.2,0,6.1-5.2,6.1-9.8h3.1c0,10.3-7.3,17.1-18.7,17.1
			c-7.8,0-14.3-3.7-17.4-11c-4.5,8.4-16.6,11-23.3,11c-13.4,0-27-6.1-27-21.3c0-18.1,17.3-22.3,33.1-23.5l17.1-1.4v-14.6
			c0-10.5-1.7-16.9-14.8-16.9c-5.9,0-16,1.4-15.9,5.2c0.2,3,8.9,2.4,8.9,10.8c0,6.1-4,10.5-10.6,10.5c-7.8,0-11.3-5.2-11.3-11.3
			c0-9.8,12.7-18.3,30.2-18.3c17.9,0,36.6,4.9,36.6,24.7L1595,386.3z M1572,359.3l-13.8,1.4c-11.3,1.2-12.4,7.3-12.4,16.6
			c0,9.1,0.5,19.9,12.4,19.9c8.2,0,13.4-8.4,13.8-17.6V359.3z"/>
		<path class="st1" d="M1663.3,277.5h13.4c12.4,0,22,0,25.1-5.4v124.9h12v3.1h-12c-6.3,0-18,0-24,2.1v-12.7h-0.3
			c-4.2,7.8-10.4,12.7-22,12.7c-17.4,0-36.8-14.8-36.8-39c0-22.3,13.8-41.8,37.1-41.8c11,0,17.6,4.9,21.6,13.4h0.3v-54.2h-14.5
			L1663.3,277.5z M1677.7,346.7c0-9.8-7-21.1-18.8-21.1c-11.2,0-14.1,9.8-14.1,21.6v25.1c0,17.8,4.4,25.8,14.8,25.8
			c11.5,0,18.1-10.8,18.1-20.9V346.7z"/>
	</g>
</g>
</svg>
